<svg width="109" height="109" viewBox="0 0 109 109" fill="none" xmlns="http://www.w3.org/2000/svg">
<path d="M54.5 0C24.4919 0 0 24.4919 0 54.5C0 84.5081 24.4919 109 54.5 109C84.5081 109 109 84.5081 109 54.5C109 24.4919 84.5081 0 54.5 0ZM15.2247 54.5C15.2247 43.247 20.0789 32.8765 27.8016 25.8158C30.8907 22.9474 36.1862 23.83 38.3927 27.581L52.0729 51.1903C53.3968 53.3968 53.3968 56.0445 52.0729 58.251L38.3927 81.8603C36.1862 85.832 30.8907 86.4939 27.581 83.4048C20.0789 75.9028 15.2247 65.7531 15.2247 54.5ZM70.6073 81.419L56.9271 57.8097C55.6032 55.6033 55.6032 52.9555 56.9271 50.749L70.6073 27.1397C72.8138 23.3886 77.8887 22.5061 81.1984 25.3745C88.921 32.4352 93.7753 42.8057 93.7753 54.0587C93.7753 65.3118 88.921 75.6822 81.1984 82.7429C77.8887 86.2733 72.8138 85.3907 70.6073 81.419Z" fill="white"/>
</svg>
