<svg width="553" height="143" viewBox="0 0 553 143" fill="none" xmlns="http://www.w3.org/2000/svg">
<path d="M145.45 110V24.2H164.77V69.32L183.01 48.56H205.57L183.97 71.6L208.09 110H185.41L170.65 84.92L164.77 91.16V110H145.45ZM212.598 110V48.56H232.158V110H212.598ZM212.598 40.04V24.2H232.158V40.04H212.598ZM241.543 110V48.56H260.383V56.96H260.743C265.463 50.16 271.783 46.76 279.703 46.76C286.343 46.76 291.543 48.92 295.303 53.24C299.143 57.48 301.063 63.08 301.063 70.04V110H281.503V74C281.503 70.64 280.663 68 278.983 66.08C277.383 64.08 275.023 63.08 271.903 63.08C268.703 63.08 266.103 64.28 264.103 66.68C262.103 69.08 261.103 72.2 261.103 76.04V110H241.543ZM309.981 110V48.56H328.821V56.96H329.181C333.901 50.16 340.221 46.76 348.141 46.76C354.781 46.76 359.981 48.92 363.741 53.24C367.581 57.48 369.501 63.08 369.501 70.04V110H349.941V74C349.941 70.64 349.101 68 347.421 66.08C345.821 64.08 343.461 63.08 340.341 63.08C337.141 63.08 334.541 64.28 332.541 66.68C330.541 69.08 329.541 72.2 329.541 76.04V110H309.981ZM408.418 111.8C398.498 111.8 390.538 108.76 384.538 102.68C378.618 96.52 375.658 88.68 375.658 79.16C375.658 69.88 378.578 62.16 384.418 56C390.338 49.84 397.938 46.76 407.218 46.76C415.618 46.76 422.618 49.32 428.218 54.44C435.578 61.16 439.178 71.12 439.018 84.32H394.858C395.498 88.56 396.978 91.88 399.298 94.28C401.618 96.6 404.738 97.76 408.658 97.76C413.698 97.76 417.098 95.72 418.858 91.64H437.938C436.498 97.56 433.058 102.4 427.618 106.16C422.258 109.92 415.858 111.8 408.418 111.8ZM394.978 72.68H419.218C418.898 69 417.658 66.08 415.498 63.92C413.418 61.76 410.778 60.68 407.578 60.68C400.618 60.68 396.418 64.68 394.978 72.68ZM475.447 111.92C465.687 111.92 457.807 108.84 451.807 102.68C445.807 96.52 442.807 88.76 442.807 79.4C442.807 70.04 445.767 62.28 451.687 56.12C457.607 49.96 465.367 46.88 474.967 46.88C483.127 46.88 489.807 49.04 495.007 53.36C500.207 57.68 503.247 63.36 504.127 70.4H485.287C483.927 64.32 480.567 61.28 475.207 61.28C471.047 61.28 467.887 62.88 465.727 66.08C463.647 69.28 462.607 73.72 462.607 79.4C462.607 85 463.687 89.4 465.847 92.6C468.007 95.72 471.127 97.28 475.207 97.28C481.447 97.28 485.007 93.76 485.887 86.72H504.607C504.367 94 501.567 100.04 496.207 104.84C490.927 109.56 484.007 111.92 475.447 111.92ZM535.2 110.72C528.96 110.72 524.12 109.48 520.68 107C517.32 104.44 515.64 100.04 515.64 93.8V60.8H507.48V48.56H515.64V29.12H534.72V48.56H545.88V60.8H534.72V89.6C534.72 91.84 535.28 93.4 536.4 94.28C537.6 95.16 539.32 95.6 541.56 95.6C542.2 95.6 543.04 95.6 544.08 95.6C545.12 95.52 545.72 95.48 545.88 95.48V109.76C543.64 110.4 540.08 110.72 535.2 110.72Z" fill="white"/>
<path d="M54.5 17C24.4919 17 0 41.4919 0 71.5C0 101.508 24.4919 126 54.5 126C84.5081 126 109 101.508 109 71.5C109 41.4919 84.5081 17 54.5 17ZM15.2247 71.5C15.2247 60.247 20.0789 49.8765 27.8016 42.8158C30.8907 39.9474 36.1862 40.83 38.3927 44.581L52.0729 68.1903C53.3968 70.3968 53.3968 73.0445 52.0729 75.251L38.3927 98.8603C36.1862 102.832 30.8907 103.494 27.581 100.405C20.0789 92.9028 15.2247 82.7531 15.2247 71.5ZM70.6073 98.419L56.9271 74.8097C55.6032 72.6033 55.6032 69.9555 56.9271 67.749L70.6073 44.1397C72.8138 40.3886 77.8887 39.5061 81.1984 42.3745C88.921 49.4352 93.7753 59.8057 93.7753 71.0587C93.7753 82.3118 88.921 92.6822 81.1984 99.7429C77.8887 103.273 72.8138 102.391 70.6073 98.419Z" fill="white"/>
</svg>
