<svg width="94" height="94" viewBox="0 0 94 94" fill="none" xmlns="http://www.w3.org/2000/svg">
<path d="M28.4038 0.816895L36.5777 8.58209C39.6429 11.443 41.2777 15.3256 41.2777 19.6169C41.2777 23.7038 42.9125 27.5865 45.7734 30.4473L46.7951 31.4691L56.1951 1.02122" fill="#FFAA00"/>
<path d="M0.613281 27.9956L11.8524 27.5869C15.9394 27.3825 20.0263 29.0173 22.8872 31.8782C25.7481 34.7391 29.6307 36.1695 33.7176 36.1695H35.1481L20.0263 8.17383" fill="#FFAA00"/>
<path d="M0.61305 66.8218L8.17391 58.6479C11.0348 55.5827 14.9174 53.7436 19.0044 53.7436C23.0913 53.7436 26.7696 51.9044 29.6304 49.0436L30.6522 48.0218L0 39.2349" fill="#FFAA00"/>
<path d="M28.4045 93.7953L27.7915 82.5561C27.5871 78.4692 29.0176 74.3822 31.8784 71.317C34.535 68.4562 36.1697 64.3692 35.9654 60.4866V59.0562L8.17407 74.7909" fill="#FFAA00"/>
<path d="M67.2305 92.9783L58.8523 85.6218C55.7871 82.9653 53.9479 79.0827 53.7436 74.7914C53.5392 70.7044 51.7001 67.0262 48.8392 64.1653L47.8175 63.1436L39.6436 94.0001" fill="#FFAA00"/>
<path d="M93.796 64.5735L82.5569 65.3909C78.4699 65.7996 74.383 64.3692 71.3177 61.5083C68.2525 58.8518 64.3699 57.4214 60.283 57.6257H58.8525L75.2004 85.0083" fill="#FFAA00"/>
<path d="M91.9563 25.9531L84.8042 34.5358C82.1477 37.601 78.2651 39.6444 74.1781 39.8488C70.0911 40.0531 66.4129 41.8923 63.7563 44.9575L62.939 45.9792L93.9998 53.3358" fill="#FFAA00"/>
<path d="M63.1438 0L64.1655 11.2391C64.5742 15.3261 63.3481 19.4131 60.4873 22.6826C57.8307 25.7478 56.6047 29.6304 56.809 33.7174L57.0133 35.1478L83.9873 18.187" fill="#FFAA00"/>
</svg>
