<svg width="31" height="31" viewBox="0 0 31 31" fill="none" xmlns="http://www.w3.org/2000/svg">
<path d="M18.1772 23.3201C15.7113 22.4042 13.1749 22.2633 10.8499 22.8974C9.22948 23.3201 7.67948 24.1656 6.27039 25.2224L5.28401 26.0679L5.0022 26.3497L5.63628 26.9133C5.70674 26.9133 5.70675 26.9838 5.7772 27.0542C5.91811 27.1951 6.05903 27.2656 6.27039 27.4065L6.6931 27.6883L7.11583 27.336C7.18629 27.2656 7.3272 27.1247 7.46811 27.0542C8.73629 25.9974 10.1454 25.2928 11.6249 24.9406C13.5272 24.4474 15.5704 24.5178 17.6136 25.2928C19.3045 25.9269 22.7567 26.7019 26.9136 24.9406L27.0545 24.8701L27.2658 24.6588C27.2658 24.5883 27.3363 24.5883 27.4068 24.5178C27.759 24.0951 28.1113 23.6724 28.3931 23.1792L29.8022 20.9951L27.5477 22.2633C24.2363 24.0951 21.2068 24.4474 18.1772 23.3201Z" fill="#3D45E7"/>
<path d="M8.52503 15.7113C10.4273 15.2181 12.4705 15.2885 14.5137 16.0635C16.7682 16.909 22.5455 18.1067 29.0273 12.259L30.0841 11.2022L30.1546 11.1317L30.4364 10.8499L30.2955 10.4976C30.225 10.2158 30.0841 9.86356 29.9432 9.51128L29.5909 8.5249L28.8864 9.22945C28.8159 9.37036 28.675 9.44081 28.5341 9.58172C25.4341 12.7522 20.6432 15.9931 15.1477 14.0204C12.6818 13.1045 10.1455 12.9635 7.82048 13.5976C5.56594 14.2317 3.5932 15.4295 1.76139 17.1204V17.0499L0.704568 18.1772C0.704568 18.2476 0.634126 18.2476 0.563671 18.3181L0.352295 18.5295L0.422754 18.8113C0.493208 19.1635 0.634113 19.5158 0.704568 19.8681L1.1273 20.9954L1.83184 20.0795C1.9023 19.9386 2.0432 19.8681 2.11366 19.7272C3.5932 18.3886 5.63639 16.4863 8.52503 15.7113Z" fill="#3D45E7"/>
<path d="M1.69093 14.4434C3.31138 12.7525 5.14319 11.6956 7.11591 11.132C9.01819 10.6388 11.0614 10.7093 13.1046 11.4843C19.4455 13.8093 24.9409 10.0047 27.3364 7.96154L28.2523 7.04564L28.6046 6.76381L28.3227 6.3411C28.1114 6.12973 27.9705 5.84791 27.7591 5.56609L27.3364 5.00244L26.8432 5.49563C26.7727 5.56609 26.6318 5.70699 26.5614 5.77745C23.6023 8.59563 19.0227 11.4843 13.8091 9.51155C11.3432 8.59564 8.80683 8.45473 6.48183 9.08882C5.00228 9.51155 3.59319 10.2161 2.1841 11.132L0.704545 12.3297C0.563636 12.4706 0.493182 12.5411 0.352273 12.682L0.211377 12.8229V13.0343C0.140922 13.5275 0.140913 14.0206 0.0704589 14.4434L0 16.2047L1.19774 14.9365C1.33864 14.7956 1.47956 14.5843 1.69093 14.4434Z" fill="#3D45E7"/>
<path d="M20.2204 28.1111L20.0795 28.5338L20.2204 28.1111C20.009 28.0406 19.8681 27.9702 19.6568 27.8997C17.1909 26.9838 14.6545 26.8429 12.3295 27.477C11.8363 27.6179 11.3431 27.7588 10.85 27.9702L9.15904 28.7452L8.73633 28.9565L10.1454 29.4497C10.5681 29.5906 10.9909 29.7315 11.4136 29.8724L11.6249 29.9429L11.8363 29.8724C12.0477 29.802 12.259 29.6611 12.4704 29.6611C12.6113 29.6611 12.7522 29.5906 12.8931 29.5202C14.5841 29.0974 16.4159 29.0974 18.3886 29.7315C18.6 29.802 18.7409 29.8725 18.9522 29.9429L19.3045 30.0838L19.5159 30.0133C20.009 29.8724 20.5727 29.7315 20.9954 29.5202L22.9681 28.8156L20.925 28.3224C20.7136 28.252 20.4318 28.1815 20.2204 28.1111Z" fill="#3D45E7"/>
<path d="M30.9999 13.5273L29.9431 14.5842C29.8022 14.7251 29.6613 14.866 29.5204 15.0069C26.6318 17.7546 21.9818 20.7137 16.7681 18.741C14.3022 17.8251 11.7659 17.6842 9.44087 18.3183C7.25677 18.9524 5.28403 20.0796 3.52267 21.7705L2.60677 22.7569L2.32495 23.1092L2.60677 23.5319C2.81813 23.8137 2.95905 24.0251 3.09996 24.3069L3.52267 24.941L4.01586 24.3069C4.08631 24.2364 4.22722 24.0955 4.29767 24.0251C5.98858 22.1932 7.8204 21.066 9.93403 20.5023C11.8363 20.0092 13.8795 20.0796 15.9227 20.8546C17.684 21.4887 19.5159 21.7001 21.3477 21.4887C24.5886 21.1364 27.8295 19.3046 30.225 17.2614C30.3659 17.1205 30.5068 17.0501 30.6477 16.9092L30.859 16.6978V16.4864C30.859 16.0637 30.9295 15.5705 30.9295 15.1478L30.9999 13.5273Z" fill="#3D45E7"/>
<path d="M4.22729 7.04573L4.01594 6.623L4.22729 7.04573C4.65002 6.83437 5.14322 6.69345 5.56594 6.55254C7.46822 6.05936 9.5114 6.12982 11.5546 6.90482C12.8932 7.398 14.2318 7.60936 15.7114 7.60936C18.6705 7.60936 21.6296 6.55255 24.3773 4.50937L25.4341 3.6639L25.7864 3.38209L25.1523 2.8889C24.9409 2.67754 24.6591 2.46618 24.3773 2.32527L23.9546 2.04346L23.6023 2.32527C23.4614 2.39573 23.3909 2.53663 23.25 2.60708C19.5159 5.42527 15.7819 6.20028 12.2591 4.86164C9.72276 3.94573 7.18639 3.73437 4.65002 4.50937C4.43866 4.57982 4.22729 4.65027 3.94548 4.72072L3.80458 4.79118L3.5932 5.00254C3.5932 5.07299 3.52276 5.073 3.45231 5.14345C3.17049 5.56618 2.8182 5.91846 2.53639 6.34119L1.19775 8.38437L3.38185 7.25709C3.73412 7.25709 4.01593 7.11619 4.22729 7.04573Z" fill="#3D45E7"/>
<path d="M10.0046 2.25453L10.2159 2.32499C11.1318 2.67726 12.5409 3.02954 14.3023 3.02954C16.1341 3.02954 17.8955 2.60681 19.6568 1.90226L21.8409 0.845442L20.3614 0.352273C19.9387 0.211364 19.5159 0.0704545 19.0227 0H18.8114L18.6 0.0704373C18.3887 0.140892 18.1773 0.281818 17.9659 0.352273C15.8523 1.12727 13.7386 1.26818 11.6955 0.704545C11.4841 0.634091 11.2727 0.563623 11.0614 0.493169L10.85 0.42271L10.6386 0.493169C10.2159 0.634078 9.7932 0.774996 9.37047 0.986359L7.75 1.6909L9.44093 2.18407C9.58184 2.11362 9.79319 2.18408 10.0046 2.25453Z" fill="#3D45E7"/>
</svg>
