<svg width="31" height="31" viewBox="0 0 31 31" fill="none" xmlns="http://www.w3.org/2000/svg">
<path d="M18.1774 23.3202C15.7115 22.4043 13.1752 22.2634 10.8502 22.8975C9.22973 23.3202 7.67973 24.1657 6.27064 25.2225L5.28426 26.068L5.00244 26.3498L5.63653 26.9134C5.70698 26.9134 5.70699 26.9839 5.77745 27.0543C5.91835 27.1952 6.05927 27.2657 6.27064 27.4066L6.69335 27.6884L7.11608 27.3361C7.18653 27.2657 7.32744 27.1248 7.46835 27.0543C8.73653 25.9975 10.1456 25.293 11.6252 24.9407C13.5274 24.4475 15.5706 24.518 17.6138 25.293C19.3047 25.9271 22.757 26.7021 26.9138 24.9407L27.0547 24.8702L27.2661 24.6589C27.2661 24.5884 27.3365 24.5884 27.407 24.518C27.7593 24.0952 28.1115 23.6725 28.3934 23.1793L29.8025 20.9952L27.5479 22.2634C24.2365 24.0952 21.207 24.4475 18.1774 23.3202Z" fill="white"/>
<path d="M8.52527 15.7114C10.4275 15.2182 12.4707 15.2887 14.5139 16.0637C16.7685 16.9091 22.5457 18.1069 29.0275 12.2591L30.0844 11.2023L30.1548 11.1319L30.4366 10.85L30.2957 10.4978C30.2253 10.2159 30.0844 9.86368 29.9434 9.51141L29.5912 8.52502L28.8866 9.22957C28.8162 9.37048 28.6753 9.44093 28.5344 9.58184C25.4344 12.7523 20.6434 15.9932 15.148 14.0205C12.6821 13.1046 10.1457 12.9637 7.82072 13.5978C5.56618 14.2319 3.59345 15.4296 1.76163 17.1205V17.05L0.704812 18.1773C0.704812 18.2478 0.63437 18.2478 0.563916 18.3182L0.352539 18.5296L0.422998 18.8114C0.493452 19.1637 0.634357 19.5159 0.704812 19.8682L1.12754 20.9955L1.83209 20.0796C1.90254 19.9387 2.04345 19.8682 2.1139 19.7273C3.59345 18.3887 5.63663 16.4864 8.52527 15.7114Z" fill="white"/>
<path d="M1.69093 14.4433C3.31138 12.7524 5.14319 11.6956 7.11591 11.1319C9.01819 10.6388 11.0614 10.7092 13.1046 11.4842C19.4455 13.8092 24.9409 10.0047 27.3364 7.96148L28.2523 7.04558L28.6046 6.76374L28.3227 6.34103C28.1114 6.12967 27.9705 5.84785 27.7591 5.56603L27.3364 5.00238L26.8432 5.49557C26.7727 5.56603 26.6318 5.70693 26.5614 5.77738C23.6023 8.59557 19.0227 11.4842 13.8091 9.51149C11.3432 8.59558 8.80683 8.45467 6.48183 9.08876C5.00228 9.51148 3.59319 10.216 2.1841 11.1319L0.704545 12.3297C0.563636 12.4706 0.493182 12.541 0.352273 12.6819L0.211377 12.8228V13.0342C0.140922 13.5274 0.140913 14.0206 0.0704589 14.4433L0 16.2047L1.19774 14.9365C1.33865 14.7956 1.47956 14.5842 1.69093 14.4433Z" fill="white"/>
<path d="M20.2204 28.1113L20.0795 28.534L20.2204 28.1113C20.009 28.0408 19.8681 27.9703 19.6568 27.8999C17.1909 26.984 14.6545 26.8431 12.3295 27.4772C11.8363 27.6181 11.3431 27.759 10.85 27.9704L9.15904 28.7454L8.73633 28.9567L10.1454 29.4499C10.5681 29.5908 10.9909 29.7317 11.4136 29.8726L11.6249 29.9431L11.8363 29.8726C12.0477 29.8022 12.259 29.6613 12.4704 29.6613C12.6113 29.6613 12.7522 29.5908 12.8931 29.5204C14.5841 29.0976 16.4159 29.0976 18.3886 29.7317C18.6 29.8022 18.7409 29.8726 18.9522 29.9431L19.3045 30.084L19.5159 30.0135C20.009 29.8726 20.5727 29.7317 20.9954 29.5204L22.9681 28.8158L20.925 28.3226C20.7136 28.2522 20.4318 28.1817 20.2204 28.1113Z" fill="white"/>
<path d="M31.0002 13.5274L29.9434 14.5842C29.8025 14.7251 29.6616 14.866 29.5207 15.0069C26.632 17.7547 21.982 20.7137 16.7684 18.741C14.3025 17.8251 11.7661 17.6842 9.44111 18.3183C7.25702 18.9524 5.28427 20.0797 3.52291 21.7706L2.60701 22.7569L2.3252 23.1092L2.60701 23.5319C2.81837 23.8137 2.95929 24.0251 3.1002 24.3069L3.52291 24.941L4.0161 24.3069C4.08655 24.2365 4.22746 24.0956 4.29791 24.0251C5.98882 22.1933 7.82064 21.066 9.93428 20.5024C11.8366 20.0092 13.8797 20.0796 15.9229 20.8546C17.6843 21.4887 19.5161 21.7001 21.3479 21.4888C24.5888 21.1365 27.8297 19.3047 30.2252 17.2615C30.3661 17.1206 30.507 17.0501 30.6479 16.9092L30.8593 16.6978V16.4865C30.8593 16.0637 30.9297 15.5706 30.9297 15.1478L31.0002 13.5274Z" fill="white"/>
<path d="M4.22729 7.04573L4.01594 6.623L4.22729 7.04573C4.65002 6.83437 5.14322 6.69345 5.56594 6.55254C7.46822 6.05936 9.5114 6.12982 11.5546 6.90482C12.8932 7.398 14.2318 7.60936 15.7114 7.60936C18.6705 7.60936 21.6296 6.55255 24.3773 4.50937L25.4341 3.6639L25.7864 3.38209L25.1523 2.8889C24.9409 2.67754 24.6591 2.46618 24.3773 2.32527L23.9546 2.04346L23.6023 2.32527C23.4614 2.39573 23.3909 2.53663 23.25 2.60708C19.5159 5.42527 15.7819 6.20028 12.2591 4.86164C9.72276 3.94573 7.18639 3.73437 4.65002 4.50937C4.43866 4.57982 4.2273 4.65027 3.94548 4.72072L3.80458 4.79118L3.5932 5.00254C3.5932 5.07299 3.52276 5.073 3.45231 5.14345C3.17049 5.56618 2.8182 5.91846 2.53639 6.34119L1.19775 8.38437L3.38185 7.25709C3.73412 7.25709 4.01593 7.11619 4.22729 7.04573Z" fill="white"/>
<path d="M10.0046 2.25453L10.2159 2.32499C11.1318 2.67726 12.5409 3.02954 14.3023 3.02954C16.1341 3.02954 17.8955 2.60681 19.6568 1.90226L21.8409 0.845442L20.3614 0.352273C19.9387 0.211364 19.5159 0.0704545 19.0227 0H18.8114L18.6 0.0704373C18.3887 0.140892 18.1773 0.281818 17.9659 0.352273C15.8523 1.12727 13.7386 1.26818 11.6955 0.704545C11.4841 0.634091 11.2727 0.563623 11.0614 0.493169L10.85 0.42271L10.6386 0.493169C10.2159 0.634078 9.7932 0.774996 9.37047 0.986359L7.75 1.6909L9.44093 2.18407C9.58184 2.11362 9.79319 2.18408 10.0046 2.25453Z" fill="white"/>
</svg>
