<svg width="206" height="59" viewBox="0 0 206 59" fill="none" xmlns="http://www.w3.org/2000/svg">
<g clip-path="url(#clip0_12411_2188)">
<path d="M16.3955 6.31834L25.5456 1.0342C25.8062 0.883865 26.1294 0.883865 26.39 1.0342L50.5056 14.9574C50.7662 15.1077 50.9265 15.3858 50.929 15.6865L50.9616 25.2626C50.9616 25.5657 50.8013 25.8463 50.5382 25.9967L41.4005 31.2733C40.8393 31.599 40.1353 31.1931 40.1328 30.5442L40.1027 21.9503C40.1027 21.6496 39.9398 21.3715 39.6793 21.2212L16.3955 7.78156C15.8317 7.45584 15.8317 6.64405 16.3955 6.31834Z" fill="#B4F9BA"/>
<path d="M10.485 49.6938L1.33731 44.4122C1.07423 44.2618 0.913879 43.9837 0.913879 43.6806V15.8342C0.913879 15.5336 1.07423 15.2554 1.33481 15.1026L9.61304 10.2845C9.87612 10.1317 10.1993 10.1317 10.4599 10.2845L19.5975 15.5611C20.1588 15.8868 20.1613 16.6961 19.6 17.0243L12.1737 21.3464C11.9131 21.4967 11.7528 21.7748 11.7528 22.078V48.9647C11.7528 49.6161 11.0487 50.022 10.485 49.6963V49.6938Z" fill="#B4F9BA"/>
<path d="M50.9617 33.115V43.6783C50.9617 43.9814 50.8014 44.2595 50.5383 44.4099L26.4227 58.333C26.1621 58.4834 25.8414 58.4834 25.5808 58.333L17.27 53.5726C17.0069 53.4222 16.8441 53.1416 16.8441 52.8384V42.2877C16.8441 41.6388 17.5456 41.2329 18.1094 41.5536L25.5658 45.8255C25.8264 45.9758 26.1471 45.9733 26.4077 45.8255L49.6914 32.3809C50.2552 32.0552 50.9592 32.4611 50.9592 33.1125L50.9617 33.115Z" fill="#B4F9BA"/>
<path d="M129.164 15.4461H119.823C119.417 15.4461 119.092 15.7743 119.092 16.1802V33.9468C119.092 36.2193 118.723 38.121 117.984 39.6494C117.245 41.1327 116.23 42.2451 114.938 42.9868C113.645 43.6808 112.166 44.0316 110.505 44.0316C108.103 44.0316 106.233 43.3125 104.895 41.8768C103.603 40.3935 102.956 38.096 102.956 34.9916V16.1827C102.956 15.7768 102.628 15.4486 102.225 15.4486H95.4396C95.3845 15.4386 95.3294 15.4336 95.2743 15.4336H81.7595V14.6819C81.7595 12.8729 82.1754 11.53 83.0072 10.648C83.8842 9.72098 85.1094 9.25745 86.6778 9.25745C87.5097 9.25745 88.2939 9.37271 89.033 9.60572C89.489 9.75104 89.9375 9.93896 90.3259 10.1444C90.7142 10.3499 91.1953 10.1544 91.3431 9.73852L93.6782 3.27678C93.7985 2.94104 93.6632 2.56521 93.355 2.38732C92.443 1.85866 91.3732 1.46028 90.1405 1.18968C88.7098 0.866472 87.209 0.703613 85.638 0.703613C81.0229 0.703613 77.4675 1.97892 74.972 4.52954C72.479 7.03255 71.2313 10.395 71.2313 14.6143V15.4336H66.3506C65.872 15.4336 65.4811 15.7618 65.4811 16.1677V23.0428C65.4811 23.4487 65.8695 23.7769 66.3506 23.7769H71.2313V52.1269C71.2313 52.5328 71.5595 52.861 71.9629 52.861H81.301C81.7044 52.861 82.0326 52.5328 82.0326 52.1269V23.7769H92.1499V36.5877C92.1499 40.4361 92.8189 43.6131 94.1593 46.1161C95.4998 48.5741 97.3689 50.4056 99.7692 51.6107C102.217 52.8159 104.988 53.4197 108.08 53.4197C110.944 53.4197 113.575 52.7708 115.975 51.4704C117.403 50.6862 118.626 49.684 119.645 48.4713V52.1269C119.645 52.5328 119.974 52.861 120.377 52.861H129.164C129.57 52.861 129.896 52.5328 129.896 52.1269V16.1827C129.896 15.7768 129.567 15.4486 129.164 15.4486V15.4461Z" fill="black"/>
<path d="M160.613 33.2476C159.32 32.4584 157.865 31.8571 156.249 31.4387C154.635 31.0227 153.017 30.7196 151.4 30.5342C149.832 30.3012 148.376 30.0481 147.036 29.77C145.698 29.4919 144.611 29.1211 143.781 28.6575C142.994 28.194 142.604 27.5 142.604 26.5704C142.604 25.5507 143.157 24.7163 144.267 24.0674C145.375 23.4185 147.131 23.0953 149.531 23.0953C151.24 23.0953 152.994 23.3032 154.795 23.7217C156.412 24.0449 158.008 24.6362 159.589 25.4931C159.962 25.6935 160.423 25.5457 160.603 25.1623L163.585 18.7733C163.748 18.425 163.615 18.0041 163.279 17.8212C161.631 16.9217 159.636 16.2226 157.291 15.7291C154.66 15.1728 152.074 14.8947 149.534 14.8947C145.933 14.8947 142.839 15.4284 140.253 16.4932C137.668 17.5155 135.683 18.9286 134.298 20.7376C132.96 22.5466 132.288 24.6312 132.288 26.9964C132.288 29.1286 132.682 30.8674 133.466 32.2129C134.298 33.5558 135.383 34.6232 136.721 35.4124C138.061 36.2016 139.537 36.803 141.153 37.2214C142.769 37.5922 144.362 37.8929 145.931 38.1259C147.547 38.3589 149.025 38.5894 150.363 38.8199C151.701 39.0529 152.764 39.4012 153.55 39.8647C154.382 40.2831 154.798 40.9321 154.798 41.8115C154.798 42.8789 154.267 43.7132 153.204 44.3145C152.19 44.9158 150.433 45.219 147.94 45.219C145.678 45.219 143.37 44.8958 141.015 44.2469C139.008 43.643 137.229 42.8989 135.676 42.0145C135.303 41.8015 134.829 41.9518 134.649 42.3427L131.657 48.8144C131.499 49.1552 131.627 49.5586 131.945 49.754C133.586 50.7562 135.708 51.6106 138.312 52.3146C141.266 53.0563 144.337 53.4271 147.522 53.4271V53.4221C151.26 53.4221 154.425 52.9135 157.01 51.8937C159.641 50.874 161.651 49.4834 163.036 47.722C164.422 45.9155 165.113 43.851 165.113 41.5334C165.113 39.4012 164.697 37.6849 163.865 36.3871C163.034 35.0416 161.949 33.9993 160.611 33.2577L160.613 33.2476Z" fill="black"/>
<path d="M202.526 23.9348C200.817 21.0134 198.487 18.7885 195.53 17.2576C192.621 15.6816 189.482 14.8924 185.696 14.8924C181.91 14.8924 178.515 15.7267 175.516 17.3954C172.515 19.0165 170.137 21.289 168.383 24.2104C166.674 27.0843 165.82 30.4467 165.82 34.1548C165.82 37.863 166.697 41.1803 168.451 44.0992C170.204 46.9731 172.675 49.2456 175.859 50.9142C179.092 52.5829 182.83 53.4173 187.079 53.4173V53.4223C190.452 53.4223 193.431 52.9111 196.014 51.8939C198.372 50.9218 200.363 49.5813 201.992 47.8776C202.258 47.5994 202.258 47.1585 201.997 46.8728L197.199 41.6488C196.928 41.3557 196.477 41.3356 196.174 41.5987C195.069 42.5634 193.862 43.305 192.549 43.8236C191.07 44.425 189.339 44.7281 187.355 44.7281C185.14 44.7281 183.201 44.3348 181.537 43.5455C179.921 42.7112 178.651 41.5286 177.729 40.0002C177.25 39.1433 176.909 38.2138 176.691 37.2166H204.214C204.59 37.2166 204.906 36.9284 204.941 36.5526C204.966 36.2945 204.991 36.0265 205.014 35.7559C205.061 35.1996 205.084 34.7136 205.084 34.2951C205.084 30.2613 204.229 26.8086 202.521 23.9323L202.526 23.9348ZM180.848 24.3532C182.279 23.5189 183.92 23.1005 185.766 23.1005C187.613 23.1005 189.229 23.5189 190.614 24.3532C192 25.14 193.085 26.2549 193.869 27.6906C194.39 28.6427 194.734 29.71 194.909 30.8876H176.566C176.746 29.7301 177.087 28.6853 177.593 27.7582C178.38 26.275 179.462 25.14 180.848 24.3507V24.3532Z" fill="black"/>
</g>
<defs>
<clipPath id="clip0_12411_2188">
<rect width="204.172" height="57.7447" fill="white" transform="translate(0.913879 0.703613)"/>
</clipPath>
</defs>
</svg>
