<svg width="57" height="65" viewBox="0 0 57 65" fill="none" xmlns="http://www.w3.org/2000/svg">
<path d="M17.7429 6.23614L28.0579 0.279323C28.3516 0.109855 28.716 0.109855 29.0097 0.279323L56.1953 15.9749C56.489 16.1444 56.6698 16.4579 56.6726 16.7969L56.7094 27.592C56.7094 27.9338 56.5286 28.2501 56.232 28.4196L45.9311 34.3679C45.2985 34.7351 44.5048 34.2775 44.502 33.546L44.4681 23.8581C44.4681 23.5191 44.2845 23.2056 43.9907 23.0361L17.7429 7.88564C17.1074 7.51846 17.1074 6.60333 17.7429 6.23614Z" fill="black"/>
<path d="M11.0799 55.1333L0.767772 49.1793C0.471202 49.0098 0.290436 48.6963 0.290436 48.3546V16.9633C0.290436 16.6244 0.471202 16.3109 0.764948 16.1386L10.097 10.7071C10.3936 10.5348 10.7579 10.5348 11.0517 10.7071L21.3526 16.6554C21.9852 17.0226 21.9881 17.9349 21.3554 18.3049L12.9836 23.1772C12.6899 23.3466 12.5091 23.6602 12.5091 24.0019V54.3114C12.5091 55.0457 11.7154 55.5033 11.0799 55.1361V55.1333Z" fill="black"/>
<path d="M56.7095 36.4441V48.3521C56.7095 48.6938 56.5287 49.0073 56.2322 49.1768L29.0466 64.8724C28.7528 65.0419 28.3913 65.0419 28.0975 64.8724L18.7288 59.5059C18.4322 59.3365 18.2486 59.0201 18.2486 58.6784V46.7845C18.2486 46.0529 19.0394 45.5954 19.675 45.9569L28.0806 50.7726C28.3743 50.9421 28.7359 50.9393 29.0296 50.7726L55.2775 35.6165C55.913 35.2493 56.7067 35.7069 56.7067 36.4412L56.7095 36.4441Z" fill="black"/>
</svg>
