<svg width="206" height="59" viewBox="0 0 206 59" fill="none" xmlns="http://www.w3.org/2000/svg">
<g clip-path="url(#clip0_12411_2164)">
<path d="M16.3955 6.31831L25.5456 1.03417C25.8062 0.883834 26.1294 0.883834 26.39 1.03417L50.5056 14.9573C50.7662 15.1077 50.9265 15.3858 50.929 15.6864L50.9616 25.2625C50.9616 25.5657 50.8013 25.8463 50.5382 25.9967L41.4005 31.2733C40.8393 31.599 40.1353 31.1931 40.1328 30.5442L40.1027 21.9502C40.1027 21.6496 39.9398 21.3715 39.6793 21.2211L16.3955 7.78153C15.8317 7.45581 15.8317 6.64402 16.3955 6.31831Z" fill="#B4F9BA"/>
<path d="M10.485 49.6938L1.33731 44.4121C1.07423 44.2618 0.913879 43.9837 0.913879 43.6805V15.8342C0.913879 15.5335 1.07423 15.2554 1.33481 15.1026L9.61304 10.2845C9.87612 10.1316 10.1993 10.1316 10.4599 10.2845L19.5975 15.5611C20.1588 15.8868 20.1613 16.6961 19.6 17.0243L12.1737 21.3463C11.9131 21.4967 11.7528 21.7748 11.7528 22.0779V48.9647C11.7528 49.6161 11.0487 50.022 10.485 49.6963V49.6938Z" fill="#B4F9BA"/>
<path d="M50.9617 33.1149V43.6782C50.9617 43.9814 50.8014 44.2595 50.5383 44.4098L26.4227 58.333C26.1621 58.4833 25.8414 58.4833 25.5808 58.333L17.27 53.5725C17.0069 53.4222 16.8441 53.1415 16.8441 52.8384V42.2876C16.8441 41.6387 17.5456 41.2328 18.1094 41.5535L25.5658 45.8254C25.8264 45.9758 26.1471 45.9733 26.4077 45.8254L49.6914 32.3808C50.2552 32.0551 50.9592 32.461 50.9592 33.1124L50.9617 33.1149Z" fill="#B4F9BA"/>
<path d="M129.164 15.446H119.823C119.417 15.446 119.092 15.7743 119.092 16.1801V33.9468C119.092 36.2193 118.723 38.121 117.984 39.6493C117.245 41.1326 116.23 42.2451 114.938 42.9867C113.645 43.6807 112.166 44.0315 110.505 44.0315C108.103 44.0315 106.233 43.3124 104.895 41.8767C103.603 40.3935 102.956 38.0959 102.956 34.9916V16.1826C102.956 15.7768 102.628 15.4485 102.225 15.4485H95.4396C95.3845 15.4385 95.3294 15.4335 95.2743 15.4335H81.7595V14.6818C81.7595 12.8729 82.1754 11.5299 83.0072 10.648C83.8842 9.72091 85.1094 9.25739 86.6778 9.25739C87.5097 9.25739 88.2939 9.37265 89.033 9.60566C89.489 9.75098 89.9375 9.9389 90.3259 10.1443C90.7142 10.3498 91.1953 10.1544 91.3431 9.73845L93.6782 3.27672C93.7985 2.94098 93.6632 2.56515 93.355 2.38726C92.443 1.8586 91.3732 1.46022 90.1405 1.18962C88.7098 0.866411 87.209 0.703552 85.638 0.703552C81.0229 0.703552 77.4675 1.97886 74.972 4.52948C72.479 7.03249 71.2313 10.3949 71.2313 14.6142V15.4335H66.3506C65.872 15.4335 65.4811 15.7617 65.4811 16.1676V23.0428C65.4811 23.4487 65.8695 23.7769 66.3506 23.7769H71.2313V52.1268C71.2313 52.5327 71.5595 52.8609 71.9629 52.8609H81.301C81.7044 52.8609 82.0326 52.5327 82.0326 52.1268V23.7769H92.1499V36.5876C92.1499 40.4361 92.8189 43.6131 94.1593 46.1161C95.4998 48.574 97.3689 50.4055 99.7692 51.6107C102.217 52.8158 104.988 53.4197 108.08 53.4197C110.944 53.4197 113.575 52.7707 115.975 51.4704C117.403 50.6861 118.626 49.6839 119.645 48.4713V52.1268C119.645 52.5327 119.974 52.8609 120.377 52.8609H129.164C129.57 52.8609 129.896 52.5327 129.896 52.1268V16.1826C129.896 15.7768 129.567 15.4485 129.164 15.4485V15.446Z" fill="white"/>
<path d="M160.613 33.2476C159.32 32.4583 157.865 31.857 156.249 31.4386C154.635 31.0226 153.017 30.7195 151.4 30.5341C149.832 30.3011 148.376 30.048 147.036 29.7699C145.698 29.4918 144.611 29.121 143.781 28.6574C142.994 28.1939 142.604 27.4999 142.604 26.5703C142.604 25.5506 143.157 24.7163 144.267 24.0673C145.375 23.4184 147.131 23.0952 149.531 23.0952C151.24 23.0952 152.994 23.3031 154.795 23.7216C156.412 24.0448 158.008 24.6361 159.589 25.493C159.962 25.6934 160.423 25.5456 160.603 25.1622L163.585 18.7732C163.748 18.4249 163.615 18.004 163.279 17.8211C161.631 16.9216 159.636 16.2225 157.291 15.729C154.66 15.1727 152.074 14.8946 149.534 14.8946C145.933 14.8946 142.839 15.4283 140.253 16.4931C137.668 17.5154 135.683 18.9285 134.298 20.7375C132.96 22.5465 132.288 24.6311 132.288 26.9963C132.288 29.1285 132.682 30.8673 133.466 32.2128C134.298 33.5557 135.383 34.6231 136.721 35.4123C138.061 36.2016 139.537 36.8029 141.153 37.2213C142.769 37.5921 144.362 37.8928 145.931 38.1258C147.547 38.3588 149.025 38.5893 150.363 38.8198C151.701 39.0528 152.764 39.4011 153.55 39.8646C154.382 40.283 154.798 40.932 154.798 41.8114C154.798 42.8788 154.267 43.7131 153.204 44.3144C152.19 44.9158 150.433 45.2189 147.94 45.2189C145.678 45.2189 143.37 44.8957 141.015 44.2468C139.008 43.6429 137.229 42.8988 135.676 42.0144C135.303 41.8014 134.829 41.9517 134.649 42.3426L131.657 48.8143C131.499 49.1551 131.627 49.5585 131.945 49.7539C133.586 50.7561 135.708 51.6105 138.312 52.3146C141.266 53.0562 144.337 53.427 147.522 53.427V53.422C151.26 53.422 154.425 52.9134 157.01 51.8936C159.641 50.8739 161.651 49.4833 163.036 47.7219C164.422 45.9155 165.113 43.8509 165.113 41.5333C165.113 39.4011 164.697 37.6848 163.865 36.387C163.034 35.0415 161.949 33.9992 160.611 33.2576L160.613 33.2476Z" fill="white"/>
<path d="M202.526 23.9348C200.817 21.0133 198.487 18.7884 195.53 17.2575C192.621 15.6816 189.482 14.8923 185.696 14.8923C181.91 14.8923 178.515 15.7267 175.516 17.3953C172.515 19.0164 170.137 21.2889 168.383 24.2104C166.674 27.0842 165.82 30.4466 165.82 34.1548C165.82 37.8629 166.697 41.1802 168.451 44.0992C170.204 46.973 172.675 49.2455 175.859 50.9142C179.092 52.5829 182.83 53.4172 187.079 53.4172V53.4222C190.452 53.4222 193.431 52.9111 196.014 51.8938C198.372 50.9217 200.363 49.5813 201.992 47.8775C202.258 47.5994 202.258 47.1584 201.997 46.8728L197.199 41.6488C196.928 41.3556 196.477 41.3356 196.174 41.5987C195.069 42.5633 193.862 43.3049 192.549 43.8236C191.07 44.4249 189.339 44.7281 187.355 44.7281C185.14 44.7281 183.201 44.3347 181.537 43.5455C179.921 42.7111 178.651 41.5285 177.729 40.0001C177.25 39.1433 176.909 38.2137 176.691 37.2165H204.214C204.59 37.2165 204.906 36.9284 204.941 36.5526C204.966 36.2945 204.991 36.0264 205.014 35.7558C205.061 35.1996 205.084 34.7135 205.084 34.2951C205.084 30.2612 204.229 26.8086 202.521 23.9322L202.526 23.9348ZM180.848 24.3532C182.279 23.5188 183.92 23.1004 185.766 23.1004C187.613 23.1004 189.229 23.5188 190.614 24.3532C192 25.1399 193.085 26.2549 193.869 27.6905C194.39 28.6426 194.734 29.71 194.909 30.8876H176.566C176.746 29.73 177.087 28.6852 177.593 27.7582C178.38 26.2749 179.462 25.1399 180.848 24.3507V24.3532Z" fill="white"/>
</g>
<defs>
<clipPath id="clip0_12411_2164">
<rect width="204.172" height="57.7447" fill="white" transform="translate(0.913879 0.703552)"/>
</clipPath>
</defs>
</svg>
